<mxfile host="app.diagrams.net" agent="Mozilla/5.0 (Windows NT 10.0; Win64; x64) AppleWebKit/537.36 (KHTML, like Gecko) Chrome/138.0.0.0 Safari/537.36 Edg/138.0.0.0" version="28.0.7">
  <diagram name="Page-1" id="d0DBo-6nG8UNgQTe0Lm4">
    <mxGraphModel dx="1418" dy="862" grid="1" gridSize="10" guides="1" tooltips="1" connect="1" arrows="1" fold="1" page="1" pageScale="1" pageWidth="850" pageHeight="1100" math="0" shadow="0">
      <root>
        <mxCell id="0" />
        <mxCell id="1" parent="0" />
        <mxCell id="fnswAU-ZexM2Hc-Xy1jP-1" value="&lt;font style=&quot;font-size: 20px;&quot;&gt;plan&lt;/font&gt;" style="ellipse;whiteSpace=wrap;html=1;fillColor=#e6d0de;gradientColor=#d5739d;strokeColor=#996185;fontStyle=1" vertex="1" parent="1">
          <mxGeometry x="280" y="30" width="100" height="60" as="geometry" />
        </mxCell>
        <mxCell id="fnswAU-ZexM2Hc-Xy1jP-2" value="&lt;font style=&quot;font-size: 16px;&quot;&gt;&lt;br&gt;Develop&lt;br&gt;&lt;/font&gt;" style="ellipse;whiteSpace=wrap;html=1;fillColor=#e6d0de;gradientColor=#d5739d;strokeColor=#996185;fontStyle=1" vertex="1" parent="1">
          <mxGeometry x="280" y="130" width="100" height="60" as="geometry" />
        </mxCell>
        <mxCell id="fnswAU-ZexM2Hc-Xy1jP-10" value="" style="edgeStyle=orthogonalEdgeStyle;rounded=0;orthogonalLoop=1;jettySize=auto;html=1;" edge="1" parent="1" source="fnswAU-ZexM2Hc-Xy1jP-3" target="fnswAU-ZexM2Hc-Xy1jP-4">
          <mxGeometry relative="1" as="geometry" />
        </mxCell>
        <mxCell id="fnswAU-ZexM2Hc-Xy1jP-3" value="&#xa;Build&#xa;&#xa;" style="ellipse;whiteSpace=wrap;html=1;fillColor=#e6d0de;gradientColor=#d5739d;strokeColor=#996185;fontStyle=1" vertex="1" parent="1">
          <mxGeometry x="280" y="210" width="100" height="60" as="geometry" />
        </mxCell>
        <mxCell id="fnswAU-ZexM2Hc-Xy1jP-4" value="&lt;font style=&quot;font-size: 16px;&quot;&gt;&lt;br&gt;Test &lt;br&gt;&lt;/font&gt;" style="ellipse;whiteSpace=wrap;html=1;fillColor=#e6d0de;gradientColor=#d5739d;strokeColor=#996185;fontStyle=1" vertex="1" parent="1">
          <mxGeometry x="280" y="300" width="100" height="60" as="geometry" />
        </mxCell>
        <mxCell id="fnswAU-ZexM2Hc-Xy1jP-5" value="&lt;font style=&quot;font-size: 17px;&quot;&gt;&lt;br&gt;Release&lt;br&gt;&lt;/font&gt;" style="ellipse;whiteSpace=wrap;html=1;fillColor=#e6d0de;gradientColor=#d5739d;strokeColor=#996185;fontStyle=0" vertex="1" parent="1">
          <mxGeometry x="285" y="390" width="100" height="60" as="geometry" />
        </mxCell>
        <mxCell id="fnswAU-ZexM2Hc-Xy1jP-6" value="&#xa;Deploy&#xa;&#xa;" style="ellipse;whiteSpace=wrap;html=1;fillColor=#e6d0de;gradientColor=#d5739d;strokeColor=#996185;fontStyle=1" vertex="1" parent="1">
          <mxGeometry x="282.5" y="500" width="105" height="70" as="geometry" />
        </mxCell>
        <mxCell id="fnswAU-ZexM2Hc-Xy1jP-7" value="&lt;br&gt;&lt;font style=&quot;font-size: 20px;&quot;&gt;Monitor&lt;br&gt;&lt;/font&gt;" style="ellipse;whiteSpace=wrap;html=1;fillColor=#e6d0de;gradientColor=#d5739d;strokeColor=#996185;fontStyle=0" vertex="1" parent="1">
          <mxGeometry x="280" y="730" width="110" height="70" as="geometry" />
        </mxCell>
        <mxCell id="fnswAU-ZexM2Hc-Xy1jP-8" value="&#xa;Operate &#xa;&#xa;" style="ellipse;whiteSpace=wrap;html=1;fillColor=#e6d0de;gradientColor=#d5739d;strokeColor=#996185;fontStyle=1" vertex="1" parent="1">
          <mxGeometry x="277.5" y="610" width="115" height="70" as="geometry" />
        </mxCell>
        <mxCell id="fnswAU-ZexM2Hc-Xy1jP-12" value="" style="endArrow=classic;html=1;rounded=0;entryX=0.5;entryY=0;entryDx=0;entryDy=0;exitX=0.5;exitY=1;exitDx=0;exitDy=0;" edge="1" parent="1" source="fnswAU-ZexM2Hc-Xy1jP-1" target="fnswAU-ZexM2Hc-Xy1jP-2">
          <mxGeometry width="50" height="50" relative="1" as="geometry">
            <mxPoint x="280" y="140" as="sourcePoint" />
            <mxPoint x="330" y="90" as="targetPoint" />
          </mxGeometry>
        </mxCell>
        <mxCell id="fnswAU-ZexM2Hc-Xy1jP-13" value="" style="endArrow=classic;html=1;rounded=0;exitX=0.5;exitY=1;exitDx=0;exitDy=0;" edge="1" parent="1" source="fnswAU-ZexM2Hc-Xy1jP-4">
          <mxGeometry width="50" height="50" relative="1" as="geometry">
            <mxPoint x="300" y="400" as="sourcePoint" />
            <mxPoint x="330" y="390" as="targetPoint" />
          </mxGeometry>
        </mxCell>
        <mxCell id="fnswAU-ZexM2Hc-Xy1jP-18" value="" style="endArrow=classic;html=1;rounded=0;entryX=0.5;entryY=0;entryDx=0;entryDy=0;exitX=0.5;exitY=1;exitDx=0;exitDy=0;" edge="1" parent="1" source="fnswAU-ZexM2Hc-Xy1jP-6" target="fnswAU-ZexM2Hc-Xy1jP-8">
          <mxGeometry width="50" height="50" relative="1" as="geometry">
            <mxPoint x="300" y="340" as="sourcePoint" />
            <mxPoint x="350" y="290" as="targetPoint" />
          </mxGeometry>
        </mxCell>
        <mxCell id="fnswAU-ZexM2Hc-Xy1jP-19" value="" style="endArrow=classic;html=1;rounded=0;entryX=0.5;entryY=0;entryDx=0;entryDy=0;exitX=0.5;exitY=1;exitDx=0;exitDy=0;" edge="1" parent="1" source="fnswAU-ZexM2Hc-Xy1jP-8" target="fnswAU-ZexM2Hc-Xy1jP-7">
          <mxGeometry width="50" height="50" relative="1" as="geometry">
            <mxPoint x="300" y="340" as="sourcePoint" />
            <mxPoint x="350" y="290" as="targetPoint" />
          </mxGeometry>
        </mxCell>
        <mxCell id="fnswAU-ZexM2Hc-Xy1jP-20" value="" style="endArrow=classic;html=1;rounded=0;exitX=0.5;exitY=1;exitDx=0;exitDy=0;" edge="1" parent="1" source="fnswAU-ZexM2Hc-Xy1jP-2">
          <mxGeometry width="50" height="50" relative="1" as="geometry">
            <mxPoint x="300" y="340" as="sourcePoint" />
            <mxPoint x="330" y="220" as="targetPoint" />
          </mxGeometry>
        </mxCell>
        <mxCell id="fnswAU-ZexM2Hc-Xy1jP-23" value="" style="endArrow=classic;html=1;rounded=0;exitX=0.5;exitY=1;exitDx=0;exitDy=0;entryX=0.5;entryY=0;entryDx=0;entryDy=0;" edge="1" parent="1" source="fnswAU-ZexM2Hc-Xy1jP-5" target="fnswAU-ZexM2Hc-Xy1jP-6">
          <mxGeometry width="50" height="50" relative="1" as="geometry">
            <mxPoint x="310" y="350" as="sourcePoint" />
            <mxPoint x="320" y="500" as="targetPoint" />
          </mxGeometry>
        </mxCell>
      </root>
    </mxGraphModel>
  </diagram>
</mxfile>
